<?xml version="1.0"?>
<svg xmlns="http://www.w3.org/2000/svg" xmlns:xlink="http://www.w3.org/1999/xlink" xmlns:svgjs="http://svgjs.com/svgjs" version="1.1" width="512" height="512" x="0" y="0" viewBox="0 0 512 512" style="enable-background:new 0 0 512 512" xml:space="preserve"><g><g xmlns="http://www.w3.org/2000/svg"><path d="m285.5 283.28-6.32-3.3-1.43-6.99c-3.77-18.38-14.59-32.11-21.75-32.11s-17.98 13.73-21.75 32.11l-1.43 6.99-6.32 3.3c-9.1 4.75-14.54 11.31-14.54 17.56 0 11.44 18.83 24.23 44.04 24.23s44.04-12.79 44.04-24.23c0-6.25-5.43-12.81-14.54-17.56z" fill="#333333" data-original="#000000" style=""/><path d="m372.05 127.73h-232.1c-5.71 24.73-25.22 44.24-49.95 49.95v156.64c24.73 5.71 44.24 25.22 49.95 49.95h232.1c5.71-24.73 25.22-44.24 49.95-49.95v-156.64c-24.73-5.71-44.24-25.22-49.95-49.95zm-96.55 29.94h30v30h-30zm-69 0h30v30h-30zm-45 53.21h30v30h-30zm94.5 144.19c-41.52 0-74.04-23.82-74.04-54.23 0-15.93 8.85-30.43 24.54-40.6 7-24.9 24.52-49.36 49.5-49.36s42.5 24.46 49.5 49.36c15.69 10.17 24.54 24.67 24.54 40.6 0 30.41-32.52 54.23-74.04 54.23zm94.5-114.19h-30v-30h30z" fill="#333333" data-original="#000000" style=""/><path d="m0 37.73v436.54h512v-436.54zm452 324.89h-15c-20.21 0-36.65 16.44-36.65 36.65v15h-288.7v-15c0-20.21-16.44-36.65-36.65-36.65h-15v-213.24h15c20.21 0 36.65-16.44 36.65-36.65v-15h288.7v15c0 20.21 16.44 36.65 36.65 36.65h15z" fill="#333333" data-original="#000000" style=""/></g></g></svg>
