<?xml version="1.0"?>
<svg xmlns="http://www.w3.org/2000/svg" xmlns:xlink="http://www.w3.org/1999/xlink" xmlns:svgjs="http://svgjs.com/svgjs" version="1.1" width="512" height="512" x="0" y="0" viewBox="0 0 512 512" style="enable-background:new 0 0 512 512" xml:space="preserve" class=""><g><g xmlns="http://www.w3.org/2000/svg"><path d="m256 211c-41.355 0-75 33.645-75 75s33.645 75 75 75 75-33.645 75-75-33.645-75-75-75zm30 90h-15v15c0 8.284-6.716 15-15 15s-15-6.716-15-15v-15h-15c-8.284 0-15-6.716-15-15s6.716-15 15-15h15v-15c0-8.284 6.716-15 15-15s15 6.716 15 15v15h15c8.284 0 15 6.716 15 15s-6.716 15-15 15z" fill="#333333" data-original="#000000" style="" class=""/><path d="m437 91h-76v-15c0-24.813-20.187-45-45-45h-120c-24.813 0-45 20.187-45 45v15h-76c-41.355 0-75 33.645-75 75v240c0 41.355 33.645 75 75 75h362c41.355 0 75-33.645 75-75v-240c0-41.355-33.645-75-75-75zm-256-15c0-8.271 6.729-15 15-15h120c8.271 0 15 6.729 15 15v15h-150zm75 315c-57.897 0-105-47.103-105-105s47.103-105 105-105 105 47.103 105 105-47.103 105-105 105z" fill="#333333" data-original="#000000" style="" class=""/></g></g></svg>
