<?xml version="1.0"?>
<svg xmlns="http://www.w3.org/2000/svg" xmlns:xlink="http://www.w3.org/1999/xlink" xmlns:svgjs="http://svgjs.com/svgjs" version="1.1" width="512" height="512" x="0" y="0" viewBox="0 0 512 512" style="enable-background:new 0 0 512 512" xml:space="preserve" class=""><g transform="matrix(0.76,0,0,0.7600000000000001,61.44,61.44011730194089)"><path xmlns="http://www.w3.org/2000/svg" d="m489.5 466.996094h-14.878906v-242.882813l1.246094.851563c15.210937 10.417968 36.132812-.386719 36.132812-19.050782 0-21.472656-10.578125-41.539062-28.292969-53.671874l-217.820312-149.203126c-5.914063-4.050781-13.859375-4.050781-19.773438 0l-32.980469 22.589844c-3.417968 2.339844-4.289062 7.007813-1.949218 10.425782 2.339844 3.417968 7.007812 4.292968 10.425781 1.949218l32.980469-22.589844c.84375-.578124 1.976562-.578124 2.820312 0l217.820313 149.199219c13.632812 9.339844 21.769531 24.777344 21.769531 41.300781 0 6.519532-7.285156 10.355469-12.65625 6.671876-11.253906-7.703126-198.59375-136.019532-218.457031-149.625-5.914063-4.050782-13.859375-4.050782-19.773438 0-8.25 5.652343-207.707031 142.265624-218.457031 149.625-5.375 3.683593-12.65625-.152344-12.65625-6.671876 0-16.523437 8.136719-31.960937 21.769531-41.296874l158.441407-108.53125c3.414062-2.339844 4.289062-7.007813 1.945312-10.425782-2.339844-3.414062-7.003906-4.289062-10.425781-1.949218l-158.4375 108.527343c-17.714844 12.136719-28.292969 32.203125-28.292969 53.675781 0 18.550782 20.824219 29.535157 36.132812 19.050782l1.246094-.851563v191.753907c0 4.140624 3.359375 7.5 7.5 7.5 4.144532 0 7.5-3.359376 7.5-7.5v-202.03125l17.121094-11.722657v264.882813h-17.121094v-18.921875c0-4.140625-3.355468-7.5-7.5-7.5-4.140625 0-7.5 3.359375-7.5 7.5v18.921875h-14.878906c-12.40625 0-22.5 10.097656-22.5 22.503906s10.09375 22.5 22.5 22.5h467c12.40625 0 22.5-10.09375 22.5-22.5s-10.09375-22.503906-22.5-22.503906zm-29.878906 0h-17.121094v-264.882813l17.121094 11.722657zm-101.121094 0v-45h69v45zm-274-165.007813h72.925781c-2.554687 8.945313-3.925781 18.382813-3.925781 28.136719v16.867188h-69zm78.523438-15h-78.523438v-45h119.214844c-17.683594 10.53125-31.949219 26.230469-40.691406 45zm-78.523438 75.003907h69v45.003906h-69zm84-31.867188c0-48.25 39.253906-87.503906 87.5-87.503906s87.5 39.253906 87.5 87.503906v136.871094h-175zm259 76.871094h-69v-45.003906h69zm0-60.003906h-69v-16.867188c0-9.753906-1.371094-19.191406-3.925781-28.136719h72.925781zm-241.011719-225.011719h139.023438l65.703125 45.003906h-270.429688zm68.101563-46.644531c.84375-.574219 1.976562-.578126 2.820312 0l46.199219 31.644531h-95.222656zm-155.703125 106.648437h314.226562l14.386719 9.851563v35.152343h-43.527344c-4.140625 0-7.5 3.355469-7.5 7.5 0 4.140625 3.359375 7.5 7.5 7.5h43.527344v45h-78.523438c-8.742187-18.769531-23.007812-34.46875-40.691406-45h43.945313c4.140625 0 7.5-3.359375 7.5-7.5 0-4.144531-3.359375-7.5-7.5-7.5h-267.730469v-35.152343zm-14.386719 240.011719h69v45h-69zm405 75.003906h-467c-4.136719 0-7.5-3.363281-7.5-7.5s3.363281-7.5 7.5-7.5h467c4.136719 0 7.5 3.363281 7.5 7.5s-3.363281 7.5-7.5 7.5zm0 0" fill="#666666" data-original="#000000" style="" class=""/></g></svg>
