<?xml version="1.0"?>
<svg xmlns="http://www.w3.org/2000/svg" xmlns:xlink="http://www.w3.org/1999/xlink" xmlns:svgjs="http://svgjs.com/svgjs" version="1.1" width="512" height="512" x="0" y="0" viewBox="0 0 512 512" style="enable-background:new 0 0 512 512" xml:space="preserve" class=""><g><g xmlns="http://www.w3.org/2000/svg"><path d="m463.439 148.344h25.318v-104.32c.001-24.274-19.748-44.024-44.024-44.024h-25.318v104.319c.001 24.275 19.75 44.025 44.024 44.025z" fill="#333333" data-original="#000000" style="" class=""/><path d="m83.891 365.217v61.832 84.951h61.192v-202.952h-5.022c-30.973 0-56.17 25.197-56.17 56.169z" fill="#333333" data-original="#000000" style="" class=""/><path d="m119.846 104.319v-104.319h-25.318c-24.275 0-44.025 19.75-44.025 44.024v104.319h25.318c24.276.001 44.025-19.749 44.025-44.024z" fill="#333333" data-original="#000000" style="" class=""/><path d="m254.631 278.111v-43.166c-20.506-6.401-35.431-25.567-35.431-48.154 0-27.808 22.624-50.431 50.431-50.431s50.431 22.624 50.431 50.431c0 22.587-14.926 41.753-35.431 48.154v43.166c58.996-7.403 104.785-57.878 104.785-118.847v-159.264h-239.57v159.263c0 60.97 45.789 111.445 104.785 118.848zm53.146-226.574h30v43.952h-30zm-106.293 0h30v43.952h-30z" fill="#333333" data-original="#000000" style="" class=""/><path d="m325.423 433.711c0-33.263 15.079-63.065 38.755-82.945v-75.422c-25.803 21.056-58.724 33.703-94.548 33.703s-68.745-12.647-94.548-33.704v3.704 232.953h79.548v-136.887h30v136.887h74.34c-20.658-19.732-33.547-47.533-33.547-78.289z" fill="#333333" data-original="#000000" style="" class=""/><ellipse cx="433.712" cy="433.712" rx="78.288" ry="78.288" transform="matrix(.973 -.23 .23 .973 -88.045 111.249)" fill="#333333" data-original="#000000" style="" class=""/><path d="m0 493.071v18.929h53.891v-54.951h-17.869c-19.863 0-36.022 16.159-36.022 36.022z" fill="#333333" data-original="#000000" style="" class=""/><path d="m269.631 166.359c-11.266 0-20.431 9.166-20.431 20.431 0 11.266 9.166 20.432 20.431 20.432s20.431-9.166 20.431-20.432c0-11.265-9.166-20.431-20.431-20.431z" fill="#333333" data-original="#000000" style="" class=""/></g></g></svg>
