<?xml version="1.0"?>
<svg xmlns="http://www.w3.org/2000/svg" xmlns:xlink="http://www.w3.org/1999/xlink" xmlns:svgjs="http://svgjs.com/svgjs" version="1.1" width="512" height="512" x="0" y="0" viewBox="0 0 60 60" style="enable-background:new 0 0 512 512" xml:space="preserve" class=""><g transform="matrix(0.7500000000000001,0,0,0.7500000000000001,7.500564219779328,7.5)"><g xmlns="http://www.w3.org/2000/svg" id="Page-1" fill="none" fill-rule="evenodd"><g id="022---Fleas" fill="rgb(0,0,0)" fill-rule="nonzero"><path id="Shape" d="m12 33c.0667239 3.8272001 1.4834204 7.5077775 4 10.392v10.887c-1.33.512-3.937 1.878-3.937 4.721 0 .5522847.4477153 1 1 1h27.937c1.7358019-.0299137 3.387507-.7529623 4.587-2.008 9.245-.255 13.413-6.518 13.413-10.992-.1181371-2.9291988-.8327118-5.8034905-2.1-8.447-.2040519-.4214702-.6732513-.6449027-1.129074-.5376645-.4558226.1072383-.7761896.5164267-.770926.9846645 0 7.188-5.6 9.222-8.94 9.794-.2674378.0465233-.5422419-.0189235-.76-.181-.2083193-.1512423-.3450647-.3816837-.378-.637-.3011247-2.0688727-.8110614-4.1019185-1.522-6.068 4.9164014-4.138051 6.0481335-11.2585494 2.657-16.717l2.877-2.877c.7808851.7800976 2.0461149.7800976 2.827 0l7.071-7.07c.7501901-.7501514 1.1716458-1.7675983 1.1716458-2.8285s-.4214557-2.0783486-1.1716458-2.8285l-1.418-1.415c-1.5836906-1.50920671-4.0733094-1.50920671-5.657 0l-7.07 7.071c-.7800976.7808851-.7800976 2.0461149 0 2.827l-2.877 2.877c-3.9315659-2.4433789-8.8700781-2.5959788-12.945-.4l-.328-2.293c.043-.027.089-.045.131-.073 1.6463254-1.1918999 2.5536673-3.1547134 2.395-5.181 0-6.278-3.215-13-8-13-3.0139473.16545327-5.9955582.70560992-8.876 1.608-1.1247497.3304067-2.0972687 1.04625433-2.747 2.022l-2.352 3.528c-.41423131.62003795-1.04512938 1.06298617-1.769 1.242l-5.8 1.449c-.86293262.2164721-1.47912957.9769373-1.512 1.866-.058 1.7.184 7.382 5.739 9.234.1020321.0333631.2086526.0505709.316.051 2.94914673.0357257 5.874411.5341241 8.669 1.477l-.249.541c-1.6047599 3.0843557-2.4553568 6.5052494-2.482 9.982zm30.938 15.225c.0980888.799782.5221998 1.5235209 1.172 2 .6577428.4840837 1.4836812.6807357 2.289.545 2.645-.454 8.2-2.076 10.016-7.747.3661485 1.2947937.5627892 2.6316145.585 3.977 0 3.629-3.814 9-12 9-.4583886-.000103-.8581532.311466-.97.756-.8314602.7593821-1.9048083 1.2000571-3.03 1.244h-1.556c.3599241-.6053465.5518554-1.2957468.556-2 0-.5522847-.4477153-1-1-1s-1 .4477153-1 1c0 1.1045695-.8954305 2-2 2h-13.283c.753-.913 2.283-2 5.283-2 .5049024-.000053.9305618-.376473.9923732-.8775776s-.2596178-.9696781-.7493732-1.0924224c-.033-.008-3.243-.859-3.243-5.03-.033676-2.3756365.9926853-4.6427951 2.8-6.185 4.1783943 2.7998536 9.6020635 2.9196426 13.9.307.5732051 1.6579956.987731 3.3666593 1.238 5.103zm8.112-36.518.707.707c.2510745.2599566.6228779.3642126.9725073.2726972.3496295-.0915155.6226744-.3645604.7141899-.7141899.0915154-.3496294-.0127406-.7214328-.2726972-.9725073l-.707-.707.707-.707c.375096-.37524801.8839266-.58607293 1.4145-.58607293s1.039404.21082492 1.4145.58607293l1.414 1.414c.375248.375096.5860729.8839266.5860729 1.4145s-.2108249 1.039404-.5860729 1.4145l-.707.707-.707-.707c-.3923789-.3789722-1.0160848-.3735524-1.4018186.0121814s-.3911536 1.0094397-.0121814 1.4018186l.707.707-4.95 4.95-.705-.705-2.83-2.83-.7-.7zm-4.95 7.777 1.416 1.416-2.654 2.654c-.4347938-.5077949-.9082051-.9812062-1.416-1.416zm-11.1 1.516c6.0751322 0 11 4.9248678 11 11s-4.9248678 11-11 11-11-4.9248678-11-11c.0071635-6.0721626 4.9278374-10.9928365 11-11zm-32.994-9.2 1.994-.5v1.7h-1.964c-.03321125-.3990825-.0432281-.7997565-.03-1.2zm14.581 9.958c-.2050154-.5069681-.6081164-.9082631-1.116-1.111-2.9693825-1.0460123-6.08908426-1.6022697-9.237-1.647-1.8454268-.6336138-3.26687292-2.1259457-3.81-4h1.576c1.1045695 0 2-.8954305 2-2v-2.2l1.8-.451c1.20730615-.3004534 2.2587489-1.04124262 2.948-2.077l2.352-3.532c.3884362-.58431957.9700542-1.01336465 1.643-1.212 2.7000936-.84893933 5.4944572-1.36213495 8.32-1.528 3.14 0 6 5.243 6 11 .1332594 1.3579274-.4408733 2.6890087-1.52 3.524-1.5149602.8398791-3.337821.9140394-4.916.2-.3801213-.1551877-.628131-.5254222-.627-.936v-6.788c0-.55228475-.4477153-1-1-1s-1 .44771525-1 1v6.788c-.0068878 1.2324021.744325 2.3423379 1.891 2.794 1.5035587.5986157 3.1475076.7523888 4.736.443l.347 2.429c.0184863.0960402.0438858.1906196.076.283-3.0309547 2.3319881-4.8757864 5.8847329-5.0397497 9.7054621-.1639632 3.8207291 1.3697207 7.5184599 4.1897497 10.1015379-2.0589744 1.9308828-3.2188334 4.6333542-3.2 7.456-.0721891 1.9870769.6663159 3.9181628 2.046 5.35-2.0344222.4368708-3.7564643 1.7819282-4.673 3.65h-6.067c.741-1.442 2.916-2.024 2.94-2.031.4433785-.1125291.7538766-.5115644.754-.969v-12c-.0000562-.2647049-.1050621-.5185889-.292-.706-2.3057235-2.5560982-3.6209662-5.8527176-3.708-9.294.026516-3.1868457.8151357-6.3210946 2.3-9.141l.255-.552c.2252153-.4912615.2368008-1.0538836.032-1.554z" fill="#666666" data-original="#000000" style="" class=""/><path id="Shape" d="m26 32c0 4.9705627 4.0294373 9 9 9s9-4.0294373 9-9-4.0294373-9-9-9c-4.9680501.006061-8.993939 4.0319499-9 9zm9-7c3.8659932 0 7 3.1340068 7 7s-3.1340068 7-7 7-7-3.1340068-7-7c.0044086-3.8641657 3.1358343-6.9955914 7-7z" fill="#666666" data-original="#000000" style="" class=""/><path id="Shape" d="m32.054 30.468c-.0337579.1753786-.0518293.3534152-.054.532h-1c-.5522847 0-1 .4477153-1 1s.4477153 1 1 1h1c.0021707.1785848.0202421.3566214.054.532l-.761.761c-.2599566.2510745-.3642126.6228779-.2726972.9725073.0915155.3496295.3645604.6226744.7141899.7141899.3496294.0915154.7214328-.0127406.9725073-.2726972l.4-.4c1.0941219.9226394 2.6938781.9226394 3.788 0l.4.4c.3923789.3789722 1.0160848.3735524 1.4018186-.0121814s.3911536-1.0094397.0121814-1.4018186l-.761-.761c.0330867-.1754388.0504887-.3534749.052-.532h1c.5522847 0 1-.4477153 1-1s-.4477153-1-1-1h-1c-.0021707-.1785848-.0202421-.3566214-.054-.532l.761-.761c.3789722-.3923789.3735524-1.0160848-.0121814-1.4018186s-1.0094397-.3911536-1.4018186-.0121814l-.4.4c-1.0941219-.9226394-2.6938781-.9226394-3.788 0l-.4-.4c-.3923789-.3789722-1.0160848-.3735524-1.4018186.0121814s-.3911536 1.0094397-.0121814 1.4018186zm3.946.532v2c0 .5522847-.4477153 1-1 1s-1-.4477153-1-1v-2c0-.5522847.4477153-1 1-1s1 .4477153 1 1z" fill="#666666" data-original="#000000" style="" class=""/></g></g></g></svg>
